<svg id="Capa_1" enable-background="new 0 0 512 512" height="512" viewBox="0 0 512 512" width="512" xmlns="http://www.w3.org/2000/svg"><g><path d="m256 0c-89.365 0-162.193 72.459-164.758 161.212l164.758-5.318 164.758 5.317c-2.565-88.752-75.393-161.211-164.758-161.211z" fill="#ff641a"/><path d="m256 0v155.894l164.758 5.317c-2.565-88.752-75.393-161.211-164.758-161.211z" fill="#f03800"/><g><path d="m15 91c-8.291 0-15-6.709-15-15v-61c0-8.291 6.709-15 15-15h61c8.291 0 15 6.709 15 15s-6.709 15-15 15h-46v46c0 8.291-6.709 15-15 15z" fill="#3b4a51"/></g><g><path d="m76 512h-61c-8.291 0-15-6.709-15-15v-61c0-8.291 6.709-15 15-15s15 6.709 15 15v46h46c8.291 0 15 6.709 15 15s-6.709 15-15 15z" fill="#3b4a51"/></g><g><path d="m497 91c-8.291 0-15-6.709-15-15v-46h-46c-8.291 0-15-6.709-15-15s6.709-15 15-15h61c8.291 0 15 6.709 15 15v61c0 8.291-6.709 15-15 15z" fill="#293939"/></g><g><path d="m497 512h-61c-8.291 0-15-6.709-15-15s6.709-15 15-15h46v-46c0-8.291 6.709-15 15-15s15 6.709 15 15v61c0 8.291-6.709 15-15 15z" fill="#293939"/></g><g><path d="m420.758 161.212-78.312 145.063-86.446 139.801c77.882 41.647 177.116 14.874 221.84-62.576 44.579-77.225 18.118-175.558-57.082-222.288z" fill="#80bfff"/><path d="m169.554 306.275-78.312-145.063c-75.2 46.73-101.66 145.063-57.082 222.288 44.398 76.91 143.202 104.998 221.84 62.576z" fill="#fed843"/></g><path d="m420.758 161.212c-53.625-33.307-115.135-32.032-164.758-5.318l86.446 150.381c48.214-29.823 80.073-83.311 78.312-145.063z" fill="#6aa9ff"/><path d="m91.242 161.212c-1.754 61.529 29.901 115.118 78.312 145.063l86.446-150.381c-49.284-26.307-111.138-27.986-164.758 5.318z" fill="#ff9100"/><path d="m256 306.275h-86.446c1.893 56.074 31.599 110.477 86.446 139.801 55.007-29.68 84.549-83.644 86.446-139.801z" fill="#97de3d"/><path d="m342.446 306.275h-86.446v139.801c55.007-29.679 84.549-83.644 86.446-139.801z" fill="#59c36a"/><path d="m320.951 218.5c-16.011-27.74-38.712-48.6-64.951-62.606-26.065 14.031-49.067 35.081-64.951 62.606-15.956 27.642-22.5 58.006-21.495 87.775 25.177 15.573 54.728 24.725 86.446 24.725s61.269-9.152 86.446-24.725c1.005-29.769-5.539-60.133-21.495-87.775z" fill="#f0f7ff"/><path d="m320.951 218.5c-16.011-27.74-38.712-48.6-64.951-62.606v175.106c31.718 0 61.269-9.152 86.446-24.725 1.005-29.769-5.539-60.133-21.495-87.775z" fill="#dfe7f4"/></g></svg>